<svg xmlns="http://www.w3.org/2000/svg" viewBox="0 0 1200 700" role="img" aria-label="Drop training">
  <defs>
    <linearGradient id="bg" x1="0" y1="0" x2="1" y2="1">
      <stop offset="0" stop-color="#2f4b7c" />
      <stop offset="0.55" stop-color="#3e639c" />
      <stop offset="1" stop-color="#6f98d6" />
    </linearGradient>
    <radialGradient id="glow" cx="35%" cy="35%" r="70%">
      <stop offset="0" stop-color="#ffffff" stop-opacity="0.18" />
      <stop offset="1" stop-color="#ffffff" stop-opacity="0" />
    </radialGradient>
  </defs>

  <rect width="1200" height="700" fill="url(#bg)"/>
  <rect width="1200" height="700" fill="url(#glow)"/>

  <g opacity="0.16">
    <path d="M140 200c240 100 440 130 680 130s310-24 380-58" fill="none" stroke="#fff" stroke-width="18" />
    <path d="M160 560c240-120 450-160 690-160s320 40 390 76" fill="none" stroke="#fff" stroke-width="12" />
  </g>

  <g transform="translate(170 140)">
    <rect x="0" y="0" width="860" height="420" rx="78" fill="#0f111b" opacity="0.9"/>
    <rect x="44" y="48" width="310" height="18" rx="9" fill="#ffffff" opacity="0.14"/>
    <rect x="44" y="84" width="220" height="12" rx="6" fill="#b7ff1a" opacity="0.75"/>

    <g transform="translate(70 140)">
      <rect x="0" y="0" width="300" height="240" rx="56" fill="#1b1e2d"/>
      <path d="M70 60c0-34 28-62 62-62h36c34 0 62 28 62 62v14H70V60z" fill="#141623"/>
      <rect x="90" y="74" width="120" height="150" rx="60" fill="#0f111b"/>
      <rect x="44" y="184" width="212" height="18" rx="9" fill="#ffffff" opacity="0.12"/>
      <rect x="44" y="214" width="140" height="12" rx="6" fill="#b7ff1a" opacity="0.85"/>
    </g>

    <g transform="translate(420 140)">
      <rect x="0" y="0" width="370" height="240" rx="56" fill="#1b1e2d"/>
      <path d="M40 150h290" stroke="#2a2c3b" stroke-width="18" stroke-linecap="round" opacity="0.9"/>
      <rect x="60" y="78" width="250" height="18" rx="9" fill="#ffffff" opacity="0.14"/>
      <rect x="60" y="108" width="180" height="12" rx="6" fill="#ffffff" opacity="0.12"/>
      <circle cx="310" cy="94" r="14" fill="#b7ff1a" opacity="0.9"/>
    </g>
  </g>
</svg>

